<svg width="251" height="191" viewBox="0 0 251 191" fill="none" xmlns="http://www.w3.org/2000/svg">
<path d="M89.9513 146.16L82.9397 131.232L85.644 129.961L88.6123 136.281L95.5297 133.032L92.5614 126.712L95.2729 125.439L102.285 140.367L99.573 141.64L96.5944 135.299L89.677 138.548L92.6556 144.89L89.9513 146.16ZM110.168 136.931C109.046 137.458 107.967 137.68 106.931 137.597C105.898 137.507 104.961 137.134 104.12 136.48C103.276 135.82 102.58 134.905 102.029 133.734C101.489 132.582 101.232 131.469 101.261 130.393C101.293 129.311 101.59 128.341 102.154 127.483C102.716 126.62 103.531 125.937 104.6 125.435C105.29 125.111 105.994 124.917 106.711 124.853C107.431 124.782 108.135 124.866 108.823 125.107C109.516 125.345 110.167 125.757 110.774 126.343C111.38 126.925 111.913 127.707 112.374 128.688L112.754 129.497L103.577 133.808L102.741 132.029L109.389 128.907C109.147 128.404 108.826 128.006 108.428 127.712C108.027 127.414 107.581 127.241 107.089 127.193C106.603 127.143 106.107 127.236 105.602 127.474C105.063 127.727 104.65 128.081 104.365 128.535C104.078 128.984 103.92 129.474 103.89 130.004C103.863 130.527 103.964 131.04 104.194 131.542L104.924 133.095C105.229 133.746 105.611 134.249 106.068 134.604C106.523 134.954 107.023 135.152 107.567 135.199C108.108 135.241 108.666 135.127 109.239 134.858C109.623 134.678 109.946 134.461 110.206 134.208C110.465 133.95 110.658 133.661 110.786 133.34C110.914 133.019 110.962 132.673 110.931 132.302L113.524 131.422C113.675 132.146 113.645 132.854 113.436 133.545C113.23 134.23 112.851 134.864 112.302 135.448C111.749 136.028 111.038 136.522 110.168 136.931ZM112.904 117.158L119.915 132.086L117.277 133.325L110.265 118.397L112.904 117.158ZM118.256 114.644L125.267 129.572L122.629 130.811L115.617 115.883L118.256 114.644ZM132.967 126.222C131.874 126.736 130.813 126.941 129.785 126.836C128.758 126.732 127.819 126.351 126.971 125.693C126.127 125.034 125.434 124.126 124.891 122.969C124.348 121.813 124.09 120.697 124.119 119.622C124.153 118.544 124.457 117.576 125.033 116.719C125.609 115.861 126.444 115.175 127.537 114.662C128.631 114.148 129.691 113.944 130.719 114.048C131.747 114.153 132.683 114.537 133.529 115.202C134.38 115.864 135.077 116.773 135.62 117.93C136.164 119.086 136.417 120.201 136.381 121.273C136.35 122.344 136.047 123.308 135.471 124.166C134.895 125.023 134.06 125.709 132.967 126.222ZM131.989 124.102C132.582 123.823 133.001 123.428 133.246 122.915C133.49 122.397 133.578 121.816 133.513 121.171C133.452 120.523 133.261 119.859 132.942 119.179C132.62 118.494 132.229 117.921 131.77 117.46C131.313 116.993 130.808 116.688 130.254 116.544C129.7 116.401 129.127 116.469 128.534 116.747C127.927 117.032 127.499 117.435 127.251 117.955C127.008 118.472 126.918 119.057 126.981 119.71C127.047 120.355 127.241 121.02 127.562 121.705C127.882 122.386 128.269 122.957 128.724 123.42C129.183 123.88 129.69 124.182 130.243 124.325C130.8 124.462 131.381 124.387 131.989 124.102ZM141.778 103.596L146.488 114.249L144.141 115.351L138.957 104.921L141.778 103.596ZM147.451 119.348C147.008 119.556 146.556 119.579 146.094 119.416C145.637 119.251 145.304 118.945 145.094 118.498C144.888 118.061 144.868 117.614 145.033 117.156C145.203 116.697 145.509 116.364 145.951 116.156C146.383 115.953 146.831 115.932 147.293 116.095C147.759 116.255 148.096 116.554 148.301 116.992C148.44 117.288 148.492 117.593 148.455 117.907C148.423 118.218 148.32 118.504 148.146 118.764C147.974 119.017 147.742 119.212 147.451 119.348Z" fill="white"/>
<path d="M203.918 107.816C199.254 94.5766 193.002 76.2358 185.009 64.9559C146.877 81.7955 108.986 98.8661 71.6247 117.421C57.4474 124.462 43.258 134.371 28.2463 139.433C34.0854 150.481 39.4015 161.757 45.1425 172.831C47.4936 177.366 51.4614 181.528 53.136 186.378C95.2241 166.221 135.685 142.51 178.597 124.032C186.822 120.49 194.433 115.418 202.987 112.583C180.78 120.807 159.68 132.636 138.401 142.96C124.175 149.863 108.846 154.425 94.5343 161.276C81.0015 167.755 68.7058 176.829 55.0816 183.011C44.18 168.295 32.1511 153.755 22.3228 138.28C30.8683 134.045 38.925 128.798 47.5076 124.681C93.1943 102.763 139.297 81.885 185.975 62.2238C192.74 76.8301 195.932 92.4954 201.82 107.332C193.557 92.9167 189.568 76.4673 181.69 61.9278C175.436 63.2732 169.262 67.2328 163.472 69.8333C148.214 76.6857 133.09 83.4176 118.17 90.9886C99.4046 100.511 80.8682 110.281 62.2345 120.076C49.4625 126.789 34.408 132.544 23.025 141.662C31.8109 156.909 40.8482 172.045 49.8074 187.176" stroke="white" stroke-width="0.944902" stroke-miterlimit="1.5" stroke-linecap="round" stroke-linejoin="round"/>
<path d="M175.201 44.1167C175.608 38.269 176.184 32.465 176.836 26.6415" stroke="white" stroke-width="1.8898" stroke-miterlimit="1.5" stroke-linecap="round" stroke-linejoin="round"/>
<path d="M187.086 49.4721C189.733 43.381 193.359 37.8311 196.59 32.0561" stroke="white" stroke-width="1.8898" stroke-miterlimit="1.5" stroke-linecap="round" stroke-linejoin="round"/>
<path d="M196.257 58.341C200.633 54.8995 205.506 51.8368 210.783 50.0492" stroke="white" stroke-width="1.8898" stroke-miterlimit="1.5" stroke-linecap="round" stroke-linejoin="round"/>
</svg>
